<svg width="97" height="92" viewBox="0 0 97 92" fill="none" xmlns="http://www.w3.org/2000/svg">
<rect width="96.7045" height="92" rx="15" fill="#700B0B"/>
<path d="M59.25 23C66.4108 23 73.2784 25.8446 78.3419 30.9081C83.4054 35.9716 86.25 42.8392 86.25 50C86.25 57.1608 83.4054 64.0284 78.3419 69.0919C73.2784 74.1554 66.4108 77 59.25 77C52.0892 77 45.2216 74.1554 40.1581 69.0919C35.0946 64.0284 32.25 57.1608 32.25 50C32.25 42.8392 35.0946 35.9716 40.1581 30.9081C45.2216 25.8446 52.0892 23 59.25 23ZM59.25 29.75C53.8794 29.75 48.7287 31.8835 44.9311 35.6811C41.1335 39.4787 39 44.6294 39 50C39 55.3706 41.1335 60.5213 44.9311 64.3189C48.7287 68.1165 53.8794 70.25 59.25 70.25C64.6206 70.25 69.7713 68.1165 73.5689 64.3189C77.3665 60.5213 79.5 55.3706 79.5 50C79.5 44.6294 77.3665 39.4787 73.5689 35.6811C69.7713 31.8835 64.6206 29.75 59.25 29.75ZM55.875 36.5H60.9375V49.2575L68.8013 57.1213L65.2238 60.6987L55.875 51.35V36.5ZM15.375 70.25C14.4799 70.25 13.6214 69.8944 12.9885 69.2615C12.3556 68.6286 12 67.7701 12 66.875C12 65.9799 12.3556 65.1214 12.9885 64.4885C13.6214 63.8556 14.4799 63.5 15.375 63.5H28.3013C29.3475 65.8963 30.6975 68.1575 32.25 70.25H15.375ZM18.75 53.375C17.8549 53.375 16.9964 53.0194 16.3635 52.3865C15.7306 51.7535 15.375 50.8951 15.375 50C15.375 49.1049 15.7306 48.2465 16.3635 47.6135C16.9964 46.9806 17.8549 46.625 18.75 46.625H25.6688L25.5 50L25.6688 53.375H18.75ZM22.125 36.5C21.2299 36.5 20.3714 36.1444 19.7385 35.5115C19.1056 34.8785 18.75 34.0201 18.75 33.125C18.75 32.2299 19.1056 31.3715 19.7385 30.7385C20.3714 30.1056 21.2299 29.75 22.125 29.75H32.25C30.6975 31.8425 29.3475 34.1038 28.3013 36.5H22.125Z" fill="white"/>
</svg>
