<svg width="97" height="92" viewBox="0 0 97 92" fill="none" xmlns="http://www.w3.org/2000/svg">
<rect width="96.7045" height="92" rx="15" fill="#700B0B"/>
<path fill-rule="evenodd" clip-rule="evenodd" d="M16.8677 13.1026C15.3975 14.5729 15.3975 16.9565 16.8677 18.4268L20.6324 22.1915C22.1026 23.6617 24.4863 23.6617 25.9565 22.1915C27.4267 20.7212 27.4267 18.3376 25.9565 16.8674L22.1918 13.1026C20.7216 11.6325 18.3379 11.6325 16.8677 13.1026ZM77.1031 13.1026C78.5732 11.6325 80.957 11.6325 82.4271 13.1026C83.8972 14.5729 83.8972 16.9565 82.4271 18.4268L78.6624 22.1915C77.1923 23.6617 74.8085 23.6617 73.3383 22.1915C71.8682 20.7212 71.8682 18.3376 73.3383 16.8674L77.1031 13.1026ZM78.6624 54.5144L82.4271 58.2792C83.8972 59.7493 83.8972 62.1331 82.4271 63.6032C80.957 65.0733 78.5732 65.0733 77.1031 63.6032L73.3383 59.8385C71.8682 58.3684 71.8682 55.9846 73.3383 54.5144C74.8085 53.0443 77.1923 53.0443 78.6624 54.5144ZM16.8677 63.6032C15.3975 62.1331 15.3975 59.7493 16.8677 58.2792L20.6324 54.5144C22.1026 53.0443 24.4863 53.0443 25.9565 54.5144C27.4267 55.9846 27.4267 58.3684 25.9565 59.8385L22.1918 63.6032C20.7216 65.0733 18.3379 65.0733 16.8677 63.6032ZM81.324 42.1176C83.4033 42.118 85.0887 40.4326 85.0887 38.3533C85.0891 36.2741 83.4037 34.5885 81.3244 34.5883L79.7651 34.5882C77.6858 34.5881 76.0004 36.2735 76 38.3527C76 40.4318 77.6854 42.1176 79.7647 42.1176H81.324ZM12 39.133C12.0002 41.2122 13.6858 42.8977 15.765 42.8973H17.3243C19.4036 42.8973 21.0889 41.2115 21.0888 39.1322C21.0886 37.0531 19.403 35.3677 17.3238 35.3679L15.7644 35.368C13.6853 35.3681 11.9998 37.0538 12 39.133ZM62.5848 56.8712C68.4198 52.7872 72.2353 46.0156 72.2353 38.3529C72.2353 25.8778 62.1222 15.7647 49.6471 15.7647C37.1719 15.7647 27.0588 25.8778 27.0588 38.3529C27.0588 46.0156 30.8743 52.7872 36.7092 56.8712C35.3834 58.493 34.5882 60.5655 34.5882 62.8235C34.5882 67.3784 37.824 71.1778 42.1222 72.0478C42.1191 72.1099 42.1176 72.1724 42.1176 72.2353C42.1176 74.3145 43.8031 76 45.8823 76H53.4118C55.491 76 57.1765 74.3145 57.1765 72.2353C57.1765 72.1724 57.175 72.1099 57.1719 72.0478C61.4701 71.1778 64.7059 67.3784 64.7059 62.8235C64.7059 60.5655 63.9108 58.493 62.5848 56.8712ZM49.6471 53.4118C57.9637 53.4118 64.7059 46.6696 64.7059 38.3529C64.7059 30.0362 57.9637 23.2941 49.6471 23.2941C41.3303 23.2941 34.5882 30.0362 34.5882 38.3529C34.5882 46.6696 41.3303 53.4118 49.6471 53.4118ZM49.6471 60.9412H49.3256H44C42.9606 60.9412 42.1176 61.7841 42.1176 62.8235C42.1176 63.863 42.9606 64.7059 44 64.7059H49.3256H49.9686H55.2941C56.3335 64.7059 57.1765 63.863 57.1765 62.8235C57.1765 61.7841 56.3335 60.9412 55.2941 60.9412H49.9686H49.6471Z" fill="white"/>
</svg>
