<svg width="88" height="92" viewBox="0 0 88 92" fill="none" xmlns="http://www.w3.org/2000/svg">
<rect width="88" height="92" rx="15" fill="white"/>
<path d="M44.3482 28.837C37.8287 28.837 32.5437 35.0024 32.5437 42.6089C32.5437 50.2142 37.8287 56.3807 44.3482 56.3807C50.8652 56.3807 56.1526 50.2166 56.1526 42.6089C56.1526 35.0024 50.8677 28.837 44.3482 28.837ZM49.2667 49.4948C49.2667 50.0383 48.8265 50.4785 48.283 50.4785H40.4133C39.8698 50.4785 39.4296 50.0383 39.4296 49.4948V47.5274C39.4296 46.9839 39.8698 46.5437 40.4133 46.5437H42.3807V39.7266L42.323 39.7648C42.2155 39.8365 42.095 39.8863 41.9683 39.9114C41.8416 39.9365 41.7112 39.9363 41.5845 39.911C41.4579 39.8856 41.3375 39.8355 41.2302 39.7636C41.1229 39.6917 41.0309 39.5993 40.9593 39.4918L39.8674 37.8551C39.7957 37.7477 39.7459 37.6272 39.7208 37.5005C39.6957 37.3738 39.6958 37.2434 39.7212 37.1167C39.7465 36.9901 39.7966 36.8697 39.8685 36.7624C39.9405 36.6551 40.0328 36.563 40.1404 36.4915L42.0254 35.2348C42.51 34.9117 43.0795 34.7392 43.662 34.7393H45.3319C45.8754 34.7393 46.3156 35.1795 46.3156 35.723V46.5437H48.283C48.8265 46.5437 49.2667 46.9839 49.2667 47.5274V49.4948ZM79.7615 19H8.93482C6.76206 19 5 20.7621 5 22.9348V62.283C5 64.4557 6.76206 66.2178 8.93482 66.2178H79.7615C81.9342 66.2178 83.6963 64.4557 83.6963 62.283V22.9348C83.6963 20.7621 81.9342 19 79.7615 19ZM77.7941 52.4459C73.4473 52.4459 69.9245 55.9688 69.9245 60.3156H18.7719C18.7719 55.9688 15.249 52.4459 10.9022 52.4459V32.7719C15.249 32.7719 18.7719 29.249 18.7719 24.9022H69.9245C69.9245 29.249 73.4473 32.7719 77.7941 32.7719V52.4459Z" fill="black"/>
</svg>
