<svg width="88" height="92" viewBox="0 0 88 92" fill="none" xmlns="http://www.w3.org/2000/svg">
<rect width="88" height="92" rx="15" fill="white"/>
<path d="M8 69.4091V66.0909C8 53.2628 18.3992 42.8636 31.2273 42.8636C44.0554 42.8636 54.4545 53.2628 54.4545 66.0909V69.4091" stroke="black" stroke-width="5.36566" stroke-linecap="round"/>
<path d="M47.8181 49.5C47.8181 40.3372 55.2462 32.9091 64.409 32.9091C73.5718 32.9091 80.9999 40.3372 80.9999 49.5V51.1591" stroke="black" stroke-width="5.36566" stroke-linecap="round"/>
<path d="M31.2271 42.8636C38.5573 42.8636 44.4998 36.9211 44.4998 29.5909C44.4998 22.2606 38.5573 16.3182 31.2271 16.3182C23.8967 16.3182 17.9543 22.2606 17.9543 29.5909C17.9543 36.9211 23.8967 42.8636 31.2271 42.8636Z" stroke="black" stroke-width="5.36566" stroke-linecap="round" stroke-linejoin="round"/>
<path d="M64.4091 32.9091C69.907 32.9091 74.3637 28.4523 74.3637 22.9545C74.3637 17.4568 69.907 13 64.4091 13C58.9112 13 54.4546 17.4568 54.4546 22.9545C54.4546 28.4523 58.9112 32.9091 64.4091 32.9091Z" stroke="black" stroke-width="5.36566" stroke-linecap="round" stroke-linejoin="round"/>
</svg>
