<svg width="88" height="92" viewBox="0 0 88 92" fill="none" xmlns="http://www.w3.org/2000/svg">
<rect width="88" height="92" rx="15" fill="white"/>
<path d="M28.4959 38.8926L40.8926 11C43.3584 11 45.7233 11.9796 47.4669 13.7232C49.2106 15.4668 50.1901 17.8317 50.1901 20.2975V32.6942H67.7315C68.6299 32.6841 69.5199 32.8694 70.3396 33.2373C71.1594 33.6052 71.8894 34.1469 72.479 34.825C73.0686 35.503 73.5037 36.3011 73.7542 37.164C74.0047 38.0269 74.0647 38.934 73.9298 39.8223L69.653 67.7149C69.4288 69.1929 68.6781 70.5402 67.539 71.5083C66.4 72.4765 64.9494 73.0004 63.4546 72.9835H28.4959M28.4959 38.8926V72.9835M28.4959 38.8926H19.1984C17.5544 38.8926 15.9779 39.5456 14.8155 40.708C13.653 41.8705 13 43.447 13 45.0909V66.7852C13 68.4291 13.653 70.0057 14.8155 71.1681C15.9779 72.3305 17.5544 72.9835 19.1984 72.9835H28.4959" stroke="black" stroke-width="11.7643" stroke-linecap="round" stroke-linejoin="round"/>
</svg>
